# 3ds Max Wavefront OBJ Exporter v0.97b - (c)2007 guruware
# File Created: 18.04.2020 13:13:12

#
# object Object001
#

v  0.2568 -0.0058 -0.2569
v  0.2568 -0.0058 0.2564
v  -0.2569 -0.0058 0.2564
v  -0.2569 -0.0058 -0.2569
v  0.2568 0.0402 0.2564
v  -0.2569 0.0402 0.2564
v  0.2570 0.0402 -0.2569
v  -0.2570 0.0402 -0.2569
v  -0.2500 0.0000 0.2500
v  0.2500 0.0000 0.2500
v  0.2500 0.0000 -0.2500
v  -0.2500 0.0000 -0.2500
v  -0.2500 0.0402 0.2500
v  0.2500 0.0402 0.2500
v  0.2500 0.0402 -0.2500
v  -0.2500 0.0402 -0.2500
v  0.2570 0.0401 -0.2568
v  -0.2570 0.0401 -0.2568
v  -0.2570 0.2542 -0.7160
v  0.2571 0.2542 -0.7160
v  -0.2570 0.2995 -0.7112
v  0.2571 0.2995 -0.7112
v  0.2571 0.2940 -0.6974
v  0.2571 0.0883 -0.2564
v  0.2570 0.0618 -0.2467
v  -0.2570 0.0618 -0.2467
v  -0.2570 0.0883 -0.2564
v  -0.2570 0.2940 -0.6974
v  -0.2500 0.2577 -0.7072
v  -0.2500 0.0463 -0.2539
v  0.2500 0.0463 -0.2539
v  0.2500 0.2577 -0.7072
v  0.2500 0.2984 -0.7049
v  -0.2500 0.2984 -0.7049
v  0.2500 0.2913 -0.6916
v  0.2500 0.0618 -0.2467
v  0.2500 0.0883 -0.2564
v  -0.2500 0.0618 -0.2467
v  -0.2500 0.2913 -0.6916
v  -0.2500 0.0883 -0.2564
v  0.2500 0.0372 -0.2506
v  -0.2500 0.0372 -0.2506
# 42 vertices

vn 0.0000 -1.0000 -0.0000
vn 0.0000 0.0000 1.0000
vn 1.0000 0.0000 0.0002
vn 1.0000 -0.0027 -0.0000
vn 0.0000 0.0000 -1.0000
vn -1.0000 -0.0005 0.0000
vn -1.0000 0.0000 -0.0000
vn 0.0000 1.0000 -0.0000
vn 1.0000 0.0000 -0.0000
vn 0.0000 -0.9063 -0.4226
vn 0.0000 0.1043 -0.9945
vn 1.0000 -0.0001 0.0002
vn 1.0000 -0.0022 -0.0010
vn 1.0000 -0.0030 -0.0014
vn -1.0000 -0.0005 -0.0004
vn -1.0000 -0.0005 -0.0002
vn 0.0000 0.9063 0.4226
vn 0.0000 -0.0578 0.9983
vn 0.0000 0.9848 0.1737
vn -0.0000 -0.4226 0.9063
vn 0.0000 -0.4226 0.9063
vn -0.0000 0.9063 0.4226
vn 0.2399 0.3313 0.9125
vn 0.2397 0.3313 0.9125
vn -0.2397 0.3313 0.9125
vn -0.2399 0.3313 0.9125
vn -0.5717 0.2800 0.7712
vn 0.5717 0.2800 0.7712
vn -0.0000 0.3420 0.9397
vn 0.0000 0.3420 0.9397
vn -0.6720 0.3130 -0.6711
vn 0.7612 -0.0676 0.6450
vn 0.6695 -0.0429 0.7416
vn -0.6749 -0.0427 0.7366
vn -0.7659 -0.0670 0.6395
vn 0.6775 0.3109 -0.6666
vn 0.6775 0.3109 -0.6667
# 37 vertex normals

vt 0.0000 1.0000 0.0000
vt 0.0000 0.0000 0.0000
vt 1.0000 0.0000 0.0000
vt 1.0000 1.0000 0.0000
vt 1.0000 0.9605 0.0000
vt 0.0000 0.9605 0.0000
vt 1.0000 0.9600 0.0000
vt 0.0000 0.9600 0.0000
# 8 texture coords

o Object001
g Object001
s off
f 1/1/1 2/2/1 3/3/1 
f 3/3/1 4/4/1 1/1/1 
f 5/4/2 6/1/2 3/2/2 
f 3/2/2 2/3/2 5/4/2 
f 7/4/3 5/1/3 2/2/3 
f 2/2/4 1/3/4 7/4/4 
f 8/4/5 7/1/5 1/2/5 
f 1/2/5 4/3/5 8/4/5 
f 6/4/6 8/1/6 4/2/6 
f 4/2/7 3/3/7 6/4/7 
f 9/3/8 10/2/8 11/1/8 
f 11/1/8 12/4/8 9/3/8 
f 9/2/5 13/1/5 14/4/5 
f 14/4/5 10/3/5 9/2/5 
f 10/2/7 14/1/7 15/4/7 
f 15/4/7 11/3/7 10/2/7 
f 11/2/2 15/1/2 16/4/2 
f 16/4/2 12/3/2 11/2/2 
f 12/2/9 16/1/9 13/4/9 
f 13/4/9 9/3/9 12/2/9 
f 14/4/8 13/1/8 6/1/8 
f 6/1/8 5/4/8 14/4/8 
f 15/4/8 14/1/8 5/1/8 
f 5/1/8 7/4/8 15/4/8 
f 13/4/8 16/1/8 8/1/8 
f 8/1/8 6/4/8 13/4/8 
f 17/4/10 18/1/10 19/2/10 
f 19/2/10 20/3/10 17/4/10 
f 21/2/11 22/3/11 20/3/11 
f 20/3/11 19/2/11 21/2/11 
f 17/4/12 20/3/12 23/3/12 
f 23/3/13 24/5/13 25/4/13 
f 17/4/14 23/3/14 25/4/14 
f 18/1/15 26/1/15 27/6/15 
f 19/2/16 18/1/16 27/6/16 
f 19/2/7 27/6/7 28/2/7 
f 29/2/17 30/1/17 31/4/17 
f 31/4/17 32/3/17 29/2/17 
f 32/3/18 33/3/18 34/2/18 
f 34/2/18 29/2/18 32/3/18 
f 35/3/7 32/3/7 31/4/7 
f 31/4/7 36/4/7 37/7/7 
f 35/3/7 31/4/7 37/7/7 
f 38/1/9 30/1/9 29/2/9 
f 38/1/9 29/2/9 39/2/9 
f 40/8/9 38/1/9 39/2/9 
f 34/2/19 33/3/19 22/3/19 
f 22/3/19 21/2/19 34/2/19 
f 35/3/17 37/7/17 24/5/17 
f 24/5/17 23/3/17 35/3/17 
f 36/4/20 31/4/20 17/4/20 
f 17/4/20 25/4/20 36/4/20 
f 30/1/21 38/1/21 26/1/21 
f 26/1/21 18/1/21 30/1/21 
f 40/8/22 39/2/22 28/2/22 
f 28/2/17 27/6/17 40/8/17 
s 1
f 41/1/23 31/1/24 30/4/25 
f 30/4/25 42/1/26 41/1/23 
f 18/1/27 42/1/26 30/4/25 
f 31/4/24 41/1/23 17/4/28 
s off
f 37/7/29 36/4/29 25/4/29 
f 25/4/30 24/5/30 37/7/30 
f 38/1/30 40/8/30 27/6/30 
f 27/6/30 26/1/30 38/1/30 
f 32/3/31 35/3/31 23/3/31 
f 23/3/31 20/3/31 32/3/31 
f 32/3/32 20/3/32 22/2/32 
f 22/2/33 33/2/33 32/3/33 
f 29/1/34 34/2/34 21/2/34 
f 21/2/35 19/2/35 29/1/35 
f 29/1/36 19/2/36 28/4/36 
f 28/4/37 39/1/37 29/1/37 
# 72 faces

